# xmcd
#
# Track frame offsets:
#	150
#	14424
#	28933
#	43416
#	56201
#	69027
#	84302
#	97925
#	114206
#	126269
#	140681
#	152438
#	165375
#	178706
#
# Disc length: 2529 seconds
#
# Revision: 0
# Processed by: cddbd v1.5.2PL0 Copyright (c) Steve Scherf et al.
# Submitted via: EZCDAudioConverter 1.0.6.1
#
DISCID=b209df0e
DTITLE=ΤΑ ΕΡΩΤΙΚΑ BLUES - BEST OF BALLANDS
DYEAR=2013
DGENRE=BALLANDs
TTITLE0=NICO FIDENCO - A CASA DI IRENE
TTITLE1=ANDY WILLIAMS - WHERE DO I BEGIN? ( THEME FROM ''LOVE STORY'' )
TTITLE2=GERARD LENORMAN - MICHELE
TTITLE3=PAUL ANKA - YOU ARE MY DESTINY
TTITLE4=BOBBY VINTON - BLUE VELVET
TTITLE5=PERTY COMO - AND I LOVE YOU SO
TTITLE6=DORIS DAY WITH PERCY FAITH and HIS ORCHESTRA - WHEN I FALL IN LOVE
TTITLE7=JOHNNY MATHIS - MISTY
TTITLE8=NELL SEDAKA - YOU MEAN EVERYTHING TO ME
TTITLE9=ANDY WILLIAMS - CANT TAKE MY EYES OF YOU
TTITLE10=PAUL ANKA - PUT YOUR HEAD ON MY SHOULDER
TTITLE11=BOBBY VINTON - SEALED WITH A KISS
TTITLE12=DOILY PARTON - I WILL ALWAYS LOVE YOU
TTITLE13=PERCY FAITH - SUMMER PLACE '76
EXTD=
EXTT0=
EXTT1=
EXTT2=
EXTT3=
EXTT4=
EXTT5=
EXTT6=
EXTT7=
EXTT8=
EXTT9=
EXTT10=
EXTT11=
EXTT12=
EXTT13=
PLAYORDER=
